<svg width="662" height="194" viewBox="0 0 662 194" fill="none" xmlns="http://www.w3.org/2000/svg">
<path d="M49 164H647" stroke="#1E1E1E"/>
<path d="M49 170V164" stroke="#1E1E1E"/>
<path d="M35.9874 190.52V189.753L38.8681 186.6C39.2061 186.23 39.4846 185.909 39.7033 185.636C39.9221 185.361 40.084 185.102 40.1891 184.861C40.2971 184.617 40.351 184.361 40.351 184.094C40.351 183.787 40.2772 183.521 40.1294 183.297C39.9846 183.073 39.7857 182.899 39.5328 182.777C39.28 182.655 38.9959 182.594 38.6806 182.594C38.3453 182.594 38.0527 182.663 37.8027 182.803C37.5556 182.939 37.3638 183.131 37.2275 183.378C37.0939 183.625 37.0272 183.915 37.0272 184.247H36.0215C36.0215 183.736 36.1394 183.287 36.3752 182.901C36.611 182.514 36.932 182.213 37.3382 181.997C37.7473 181.781 38.2061 181.673 38.7147 181.673C39.226 181.673 39.6792 181.781 40.074 181.997C40.4689 182.213 40.7786 182.504 41.003 182.871C41.2275 183.237 41.3397 183.645 41.3397 184.094C41.3397 184.415 41.2814 184.729 41.165 185.036C41.0513 185.34 40.8525 185.679 40.5684 186.054C40.2871 186.426 39.8965 186.881 39.3965 187.418L37.4363 189.514V189.583H41.4931V190.52H35.9874ZM46.0996 190.639C45.4576 190.639 44.9107 190.465 44.459 190.115C44.0073 189.763 43.6621 189.253 43.4235 188.585C43.1848 187.915 43.0655 187.105 43.0655 186.156C43.0655 185.213 43.1848 184.408 43.4235 183.74C43.665 183.07 44.0115 182.558 44.4632 182.206C44.9178 181.851 45.4632 181.673 46.0996 181.673C46.736 181.673 47.28 181.851 47.7317 182.206C48.1863 182.558 48.5328 183.07 48.7715 183.74C49.013 184.408 49.1337 185.213 49.1337 186.156C49.1337 187.105 49.0144 187.915 48.7757 188.585C48.5371 189.253 48.1919 189.763 47.7402 190.115C47.2885 190.465 46.7417 190.639 46.0996 190.639ZM46.0996 189.702C46.736 189.702 47.2303 189.395 47.5826 188.781C47.9348 188.168 48.111 187.293 48.111 186.156C48.111 185.401 48.03 184.757 47.8681 184.226C47.709 183.695 47.4789 183.29 47.1777 183.011C46.8794 182.733 46.5201 182.594 46.0996 182.594C45.4689 182.594 44.976 182.905 44.6209 183.527C44.2658 184.146 44.0882 185.023 44.0882 186.156C44.0882 186.912 44.1678 187.554 44.3269 188.083C44.486 188.611 44.7147 189.013 45.013 189.288C45.3141 189.564 45.6763 189.702 46.0996 189.702ZM53.8212 181.793V190.52H52.7644V182.901H52.7132L50.5826 184.315V183.242L52.7644 181.793H53.8212ZM59.1096 181.673C59.4675 181.676 59.8255 181.744 60.1834 181.878C60.5414 182.011 60.8681 182.233 61.1635 182.543C61.459 182.85 61.6962 183.269 61.8752 183.8C62.0542 184.331 62.1436 184.997 62.1436 185.798C62.1436 186.574 62.0698 187.263 61.9221 187.865C61.7772 188.465 61.5669 188.97 61.2914 189.382C61.0186 189.794 60.6863 190.107 60.2942 190.32C59.905 190.533 59.4647 190.639 58.9732 190.639C58.4846 190.639 58.0485 190.543 57.665 190.35C57.2843 190.154 56.9718 189.882 56.7275 189.536C56.486 189.186 56.3311 188.781 56.263 188.321H57.3027C57.3965 188.722 57.5826 189.053 57.861 189.314C58.1422 189.573 58.513 189.702 58.9732 189.702C59.6465 189.702 60.1777 189.408 60.5669 188.82C60.959 188.232 61.155 187.401 61.155 186.327H61.0868C60.9277 186.565 60.7388 186.771 60.5201 186.945C60.3013 187.118 60.0584 187.252 59.7914 187.345C59.5243 187.439 59.2402 187.486 58.9391 187.486C58.4391 187.486 57.9803 187.362 57.5627 187.115C57.1479 186.865 56.8155 186.523 56.5655 186.088C56.3184 185.651 56.1948 185.151 56.1948 184.588C56.1948 184.054 56.3141 183.565 56.5527 183.122C56.7942 182.676 57.1323 182.321 57.5669 182.057C58.0044 181.793 58.5186 181.665 59.1096 181.673ZM59.1096 182.611C58.7516 182.611 58.4292 182.7 58.1422 182.879C57.8581 183.056 57.6323 183.294 57.4647 183.595C57.2999 183.894 57.2175 184.225 57.2175 184.588C57.2175 184.952 57.2971 185.283 57.4561 185.581C57.6181 185.877 57.8382 186.112 58.1167 186.288C58.3979 186.462 58.7175 186.548 59.0755 186.548C59.3453 186.548 59.5968 186.496 59.8297 186.391C60.0627 186.283 60.2658 186.136 60.4391 185.952C60.6152 185.764 60.753 185.553 60.8525 185.317C60.9519 185.078 61.0016 184.83 61.0016 184.571C61.0016 184.23 60.9192 183.911 60.7544 183.612C60.5925 183.314 60.3681 183.073 60.0811 182.888C59.7971 182.703 59.4732 182.611 59.1096 182.611Z" fill="#1E1E1E"/>
<path d="M248.333 170V164" stroke="#1E1E1E"/>
<path d="M234.471 190.52V189.753L237.352 186.6C237.69 186.23 237.968 185.909 238.187 185.636C238.406 185.361 238.568 185.102 238.673 184.861C238.781 184.617 238.835 184.361 238.835 184.094C238.835 183.787 238.761 183.521 238.613 183.297C238.468 183.073 238.269 182.899 238.017 182.777C237.764 182.655 237.48 182.594 237.164 182.594C236.829 182.594 236.536 182.663 236.286 182.803C236.039 182.939 235.848 183.131 235.711 183.378C235.578 183.625 235.511 183.915 235.511 184.247H234.505C234.505 183.736 234.623 183.287 234.859 182.901C235.095 182.514 235.416 182.213 235.822 181.997C236.231 181.781 236.69 181.673 237.198 181.673C237.71 181.673 238.163 181.781 238.558 181.997C238.953 182.213 239.262 182.504 239.487 182.871C239.711 183.237 239.823 183.645 239.823 184.094C239.823 184.415 239.765 184.729 239.649 185.036C239.535 185.34 239.336 185.679 239.052 186.054C238.771 186.426 238.38 186.881 237.88 187.418L235.92 189.514V189.583H239.977V190.52H234.471ZM244.583 190.639C243.941 190.639 243.394 190.465 242.943 190.115C242.491 189.763 242.146 189.253 241.907 188.585C241.669 187.915 241.549 187.105 241.549 186.156C241.549 185.213 241.669 184.408 241.907 183.74C242.149 183.07 242.495 182.558 242.947 182.206C243.402 181.851 243.947 181.673 244.583 181.673C245.22 181.673 245.764 181.851 246.215 182.206C246.67 182.558 247.017 183.07 247.255 183.74C247.497 184.408 247.617 185.213 247.617 186.156C247.617 187.105 247.498 187.915 247.259 188.585C247.021 189.253 246.676 189.763 246.224 190.115C245.772 190.465 245.225 190.639 244.583 190.639ZM244.583 189.702C245.22 189.702 245.714 189.395 246.066 188.781C246.419 188.168 246.595 187.293 246.595 186.156C246.595 185.401 246.514 184.757 246.352 184.226C246.193 183.695 245.963 183.29 245.661 183.011C245.363 182.733 245.004 182.594 244.583 182.594C243.953 182.594 243.46 182.905 243.105 183.527C242.75 184.146 242.572 185.023 242.572 186.156C242.572 186.912 242.652 187.554 242.811 188.083C242.97 188.611 243.198 189.013 243.497 189.288C243.798 189.564 244.16 189.702 244.583 189.702ZM249.237 190.52V189.753L252.117 186.6C252.456 186.23 252.734 185.909 252.953 185.636C253.171 185.361 253.333 185.102 253.438 184.861C253.546 184.617 253.6 184.361 253.6 184.094C253.6 183.787 253.527 183.521 253.379 183.297C253.234 183.073 253.035 182.899 252.782 182.777C252.529 182.655 252.245 182.594 251.93 182.594C251.595 182.594 251.302 182.663 251.052 182.803C250.805 182.939 250.613 183.131 250.477 183.378C250.343 183.625 250.277 183.915 250.277 184.247H249.271C249.271 183.736 249.389 183.287 249.625 182.901C249.86 182.514 250.181 182.213 250.588 181.997C250.997 181.781 251.456 181.673 251.964 181.673C252.475 181.673 252.929 181.781 253.323 181.997C253.718 182.213 254.028 182.504 254.252 182.871C254.477 183.237 254.589 183.645 254.589 184.094C254.589 184.415 254.531 184.729 254.414 185.036C254.301 185.34 254.102 185.679 253.818 186.054C253.536 186.426 253.146 186.881 252.646 187.418L250.686 189.514V189.583H254.742V190.52H249.237ZM259.349 190.639C258.707 190.639 258.16 190.465 257.708 190.115C257.257 189.763 256.911 189.253 256.673 188.585C256.434 187.915 256.315 187.105 256.315 186.156C256.315 185.213 256.434 184.408 256.673 183.74C256.914 183.07 257.261 182.558 257.713 182.206C258.167 181.851 258.713 181.673 259.349 181.673C259.985 181.673 260.529 181.851 260.981 182.206C261.436 182.558 261.782 183.07 262.021 183.74C262.262 184.408 262.383 185.213 262.383 186.156C262.383 187.105 262.264 187.915 262.025 188.585C261.786 189.253 261.441 189.763 260.99 190.115C260.538 190.465 259.991 190.639 259.349 190.639ZM259.349 189.702C259.985 189.702 260.48 189.395 260.832 188.781C261.184 188.168 261.36 187.293 261.36 186.156C261.36 185.401 261.279 184.757 261.117 184.226C260.958 183.695 260.728 183.29 260.427 183.011C260.129 182.733 259.769 182.594 259.349 182.594C258.718 182.594 258.225 182.905 257.87 183.527C257.515 184.146 257.338 185.023 257.338 186.156C257.338 186.912 257.417 187.554 257.576 188.083C257.735 188.611 257.964 189.013 258.262 189.288C258.563 189.564 258.926 189.702 259.349 189.702Z" fill="#1E1E1E"/>
<path d="M447.667 170V164" stroke="#1E1E1E"/>
<path d="M434.765 190.52V189.753L437.646 186.6C437.984 186.23 438.263 185.909 438.481 185.636C438.7 185.361 438.862 185.102 438.967 184.861C439.075 184.617 439.129 184.361 439.129 184.094C439.129 183.787 439.055 183.521 438.907 183.297C438.763 183.073 438.564 182.899 438.311 182.777C438.058 182.655 437.774 182.594 437.459 182.594C437.123 182.594 436.831 182.663 436.581 182.803C436.334 182.939 436.142 183.131 436.005 183.378C435.872 183.625 435.805 183.915 435.805 184.247H434.799C434.799 183.736 434.917 183.287 435.153 182.901C435.389 182.514 435.71 182.213 436.116 181.997C436.525 181.781 436.984 181.673 437.493 181.673C438.004 181.673 438.457 181.781 438.852 181.997C439.247 182.213 439.557 182.504 439.781 182.871C440.005 183.237 440.118 183.645 440.118 184.094C440.118 184.415 440.059 184.729 439.943 185.036C439.829 185.34 439.63 185.679 439.346 186.054C439.065 186.426 438.674 186.881 438.174 187.418L436.214 189.514V189.583H440.271V190.52H434.765ZM444.878 190.639C444.236 190.639 443.689 190.465 443.237 190.115C442.785 189.763 442.44 189.253 442.201 188.585C441.963 187.915 441.844 187.105 441.844 186.156C441.844 185.213 441.963 184.408 442.201 183.74C442.443 183.07 442.79 182.558 443.241 182.206C443.696 181.851 444.241 181.673 444.878 181.673C445.514 181.673 446.058 181.851 446.51 182.206C446.964 182.558 447.311 183.07 447.549 183.74C447.791 184.408 447.912 185.213 447.912 186.156C447.912 187.105 447.792 187.915 447.554 188.585C447.315 189.253 446.97 189.763 446.518 190.115C446.067 190.465 445.52 190.639 444.878 190.639ZM444.878 189.702C445.514 189.702 446.008 189.395 446.361 188.781C446.713 188.168 446.889 187.293 446.889 186.156C446.889 185.401 446.808 184.757 446.646 184.226C446.487 183.695 446.257 183.29 445.956 183.011C445.657 182.733 445.298 182.594 444.878 182.594C444.247 182.594 443.754 182.905 443.399 183.527C443.044 184.146 442.866 185.023 442.866 186.156C442.866 186.912 442.946 187.554 443.105 188.083C443.264 188.611 443.493 189.013 443.791 189.288C444.092 189.564 444.454 189.702 444.878 189.702ZM449.531 190.52V189.753L452.412 186.6C452.75 186.23 453.028 185.909 453.247 185.636C453.466 185.361 453.628 185.102 453.733 184.861C453.841 184.617 453.895 184.361 453.895 184.094C453.895 183.787 453.821 183.521 453.673 183.297C453.528 183.073 453.329 182.899 453.076 182.777C452.824 182.655 452.54 182.594 452.224 182.594C451.889 182.594 451.596 182.663 451.346 182.803C451.099 182.939 450.907 183.131 450.771 183.378C450.638 183.625 450.571 183.915 450.571 184.247H449.565C449.565 183.736 449.683 183.287 449.919 182.901C450.155 182.514 450.476 182.213 450.882 181.997C451.291 181.781 451.75 181.673 452.258 181.673C452.77 181.673 453.223 181.781 453.618 181.997C454.013 182.213 454.322 182.504 454.547 182.871C454.771 183.237 454.883 183.645 454.883 184.094C454.883 184.415 454.825 184.729 454.709 185.036C454.595 185.34 454.396 185.679 454.112 186.054C453.831 186.426 453.44 186.881 452.94 187.418L450.98 189.514V189.583H455.037V190.52H449.531ZM459.865 181.793V190.52H458.808V182.901H458.757L456.626 184.315V183.242L458.808 181.793H459.865Z" fill="#1E1E1E"/>
<path d="M647 170V164" stroke="#1E1E1E"/>
<path d="M633.255 190.52V189.753L636.136 186.6C636.474 186.23 636.752 185.909 636.971 185.636C637.19 185.361 637.352 185.102 637.457 184.861C637.565 184.617 637.619 184.361 637.619 184.094C637.619 183.787 637.545 183.521 637.397 183.297C637.252 183.073 637.053 182.899 636.8 182.777C636.548 182.655 636.263 182.594 635.948 182.594C635.613 182.594 635.32 182.663 635.07 182.803C634.823 182.939 634.631 183.131 634.495 183.378C634.362 183.625 634.295 183.915 634.295 184.247H633.289C633.289 183.736 633.407 183.287 633.643 182.901C633.879 182.514 634.2 182.213 634.606 181.997C635.015 181.781 635.474 181.673 635.982 181.673C636.494 181.673 636.947 181.781 637.342 181.997C637.737 182.213 638.046 182.504 638.271 182.871C638.495 183.237 638.607 183.645 638.607 184.094C638.607 184.415 638.549 184.729 638.433 185.036C638.319 185.34 638.12 185.679 637.836 186.054C637.555 186.426 637.164 186.881 636.664 187.418L634.704 189.514V189.583H638.761V190.52H633.255ZM643.367 190.639C642.725 190.639 642.178 190.465 641.727 190.115C641.275 189.763 640.93 189.253 640.691 188.585C640.452 187.915 640.333 187.105 640.333 186.156C640.333 185.213 640.452 184.408 640.691 183.74C640.933 183.07 641.279 182.558 641.731 182.206C642.185 181.851 642.731 181.673 643.367 181.673C644.004 181.673 644.548 181.851 644.999 182.206C645.454 182.558 645.8 183.07 646.039 183.74C646.281 184.408 646.401 185.213 646.401 186.156C646.401 187.105 646.282 187.915 646.043 188.585C645.805 189.253 645.46 189.763 645.008 190.115C644.556 190.465 644.009 190.639 643.367 190.639ZM643.367 189.702C644.004 189.702 644.498 189.395 644.85 188.781C645.202 188.168 645.379 187.293 645.379 186.156C645.379 185.401 645.298 184.757 645.136 184.226C644.977 183.695 644.746 183.29 644.445 183.011C644.147 182.733 643.788 182.594 643.367 182.594C642.737 182.594 642.244 182.905 641.888 183.527C641.533 184.146 641.356 185.023 641.356 186.156C641.356 186.912 641.435 187.554 641.594 188.083C641.754 188.611 641.982 189.013 642.281 189.288C642.582 189.564 642.944 189.702 643.367 189.702ZM648.021 190.52V189.753L650.901 186.6C651.239 186.23 651.518 185.909 651.737 185.636C651.955 185.361 652.117 185.102 652.222 184.861C652.33 184.617 652.384 184.361 652.384 184.094C652.384 183.787 652.31 183.521 652.163 183.297C652.018 183.073 651.819 182.899 651.566 182.777C651.313 182.655 651.029 182.594 650.714 182.594C650.379 182.594 650.086 182.663 649.836 182.803C649.589 182.939 649.397 183.131 649.261 183.378C649.127 183.625 649.06 183.915 649.06 184.247H648.055C648.055 183.736 648.173 183.287 648.408 182.901C648.644 182.514 648.965 182.213 649.371 181.997C649.781 181.781 650.239 181.673 650.748 181.673C651.259 181.673 651.712 181.781 652.107 181.997C652.502 182.213 652.812 182.504 653.036 182.871C653.261 183.237 653.373 183.645 653.373 184.094C653.373 184.415 653.315 184.729 653.198 185.036C653.085 185.34 652.886 185.679 652.602 186.054C652.32 186.426 651.93 186.881 651.43 187.418L649.469 189.514V189.583H653.526V190.52H648.021ZM655.286 190.52V189.753L658.167 186.6C658.505 186.23 658.783 185.909 659.002 185.636C659.221 185.361 659.383 185.102 659.488 184.861C659.596 184.617 659.65 184.361 659.65 184.094C659.65 183.787 659.576 183.521 659.428 183.297C659.283 183.073 659.085 182.899 658.832 182.777C658.579 182.655 658.295 182.594 657.979 182.594C657.644 182.594 657.352 182.663 657.102 182.803C656.854 182.939 656.663 183.131 656.526 183.378C656.393 183.625 656.326 183.915 656.326 184.247H655.32C655.32 183.736 655.438 183.287 655.674 182.901C655.91 182.514 656.231 182.213 656.637 181.997C657.046 181.781 657.505 181.673 658.013 181.673C658.525 181.673 658.978 181.781 659.373 181.997C659.768 182.213 660.077 182.504 660.302 182.871C660.526 183.237 660.638 183.645 660.638 184.094C660.638 184.415 660.58 184.729 660.464 185.036C660.35 185.34 660.151 185.679 659.867 186.054C659.586 186.426 659.195 186.881 658.695 187.418L656.735 189.514V189.583H660.792V190.52H655.286Z" fill="#1E1E1E"/>
<path d="M49 4V164" stroke="#1E1E1E"/>
<path d="M43 164H49" stroke="#1E1E1E"/>
<path d="M34.25 168.379C33.608 168.379 33.0611 168.205 32.6094 167.855C32.1577 167.503 31.8125 166.993 31.5739 166.325C31.3352 165.655 31.2159 164.845 31.2159 163.896C31.2159 162.953 31.3352 162.148 31.5739 161.48C31.8153 160.81 32.1619 160.298 32.6136 159.946C33.0682 159.591 33.6136 159.413 34.25 159.413C34.8864 159.413 35.4304 159.591 35.8821 159.946C36.3366 160.298 36.6832 160.81 36.9219 161.48C37.1634 162.148 37.2841 162.953 37.2841 163.896C37.2841 164.845 37.1648 165.655 36.9261 166.325C36.6875 166.993 36.3423 167.503 35.8906 167.855C35.4389 168.205 34.892 168.379 34.25 168.379ZM34.25 167.442C34.8864 167.442 35.3807 167.135 35.733 166.521C36.0852 165.908 36.2614 165.033 36.2614 163.896C36.2614 163.141 36.1804 162.497 36.0185 161.966C35.8594 161.435 35.6293 161.03 35.3281 160.751C35.0298 160.473 34.6705 160.334 34.25 160.334C33.6193 160.334 33.1264 160.645 32.7713 161.267C32.4162 161.886 32.2386 162.763 32.2386 163.896C32.2386 164.652 32.3182 165.294 32.4773 165.822C32.6364 166.351 32.8651 166.753 33.1634 167.028C33.4645 167.304 33.8267 167.442 34.25 167.442Z" fill="#1E1E1E"/>
<path d="M43 124H49" stroke="#1E1E1E"/>
<path d="M11.8299 128.379C11.3299 128.379 10.8796 128.28 10.479 128.081C10.0785 127.882 9.75746 127.609 9.51598 127.263C9.2745 126.916 9.1424 126.521 9.11967 126.078H10.1424C10.1822 126.473 10.3612 126.8 10.6793 127.058C11.0004 127.314 11.3839 127.442 11.8299 127.442C12.1879 127.442 12.506 127.358 12.7844 127.19C13.0657 127.023 13.2859 126.793 13.445 126.5C13.6069 126.205 13.6879 125.871 13.6879 125.499C13.6879 125.118 13.604 124.778 13.4364 124.48C13.2717 124.179 13.0444 123.942 12.7546 123.769C12.4648 123.595 12.1339 123.507 11.7617 123.504C11.4947 123.501 11.2205 123.543 10.9393 123.628C10.658 123.71 10.4265 123.817 10.2447 123.948L9.25604 123.828L9.78445 119.533H14.3185V120.47H10.6708L10.364 123.044H10.4151C10.5941 122.902 10.8185 122.784 11.0884 122.69C11.3583 122.597 11.6396 122.55 11.9322 122.55C12.4663 122.55 12.9421 122.678 13.3597 122.933C13.7802 123.186 14.1097 123.533 14.3484 123.973C14.5898 124.413 14.7106 124.916 14.7106 125.482C14.7106 126.038 14.5856 126.536 14.3356 126.973C14.0884 127.408 13.7475 127.751 13.3129 128.004C12.8782 128.254 12.3839 128.379 11.8299 128.379ZM19.25 128.379C18.608 128.379 18.0611 128.205 17.6094 127.855C17.1577 127.503 16.8125 126.993 16.5739 126.325C16.3352 125.655 16.2159 124.845 16.2159 123.896C16.2159 122.953 16.3352 122.148 16.5739 121.48C16.8153 120.81 17.1619 120.298 17.6136 119.946C18.0682 119.591 18.6136 119.413 19.25 119.413C19.8864 119.413 20.4304 119.591 20.8821 119.946C21.3366 120.298 21.6832 120.81 21.9219 121.48C22.1634 122.148 22.2841 122.953 22.2841 123.896C22.2841 124.845 22.1648 125.655 21.9261 126.325C21.6875 126.993 21.3423 127.503 20.8906 127.855C20.4389 128.205 19.892 128.379 19.25 128.379ZM19.25 127.442C19.8864 127.442 20.3807 127.135 20.733 126.521C21.0852 125.908 21.2614 125.033 21.2614 123.896C21.2614 123.141 21.1804 122.497 21.0185 121.966C20.8594 121.435 20.6293 121.03 20.3281 120.751C20.0298 120.473 19.6705 120.334 19.25 120.334C18.6193 120.334 18.1264 120.645 17.7713 121.267C17.4162 121.886 17.2386 122.763 17.2386 123.896C17.2386 124.652 17.3182 125.294 17.4773 125.823C17.6364 126.351 17.8651 126.753 18.1634 127.028C18.4645 127.304 18.8267 127.442 19.25 127.442ZM26.75 128.379C26.108 128.379 25.5611 128.205 25.1094 127.855C24.6577 127.503 24.3125 126.993 24.0739 126.325C23.8352 125.655 23.7159 124.845 23.7159 123.896C23.7159 122.953 23.8352 122.148 24.0739 121.48C24.3153 120.81 24.6619 120.298 25.1136 119.946C25.5682 119.591 26.1136 119.413 26.75 119.413C27.3864 119.413 27.9304 119.591 28.3821 119.946C28.8366 120.298 29.1832 120.81 29.4219 121.48C29.6634 122.148 29.7841 122.953 29.7841 123.896C29.7841 124.845 29.6648 125.655 29.4261 126.325C29.1875 126.993 28.8423 127.503 28.3906 127.855C27.9389 128.205 27.392 128.379 26.75 128.379ZM26.75 127.442C27.3864 127.442 27.8807 127.135 28.233 126.521C28.5852 125.908 28.7614 125.033 28.7614 123.896C28.7614 123.141 28.6804 122.497 28.5185 121.966C28.3594 121.435 28.1293 121.03 27.8281 120.751C27.5298 120.473 27.1705 120.334 26.75 120.334C26.1193 120.334 25.6264 120.645 25.2713 121.267C24.9162 121.886 24.7386 122.763 24.7386 123.896C24.7386 124.652 24.8182 125.294 24.9773 125.823C25.1364 126.351 25.3651 126.753 25.6634 127.028C25.9645 127.304 26.3267 127.442 26.75 127.442ZM34.25 128.379C33.608 128.379 33.0611 128.205 32.6094 127.855C32.1577 127.503 31.8125 126.993 31.5739 126.325C31.3352 125.655 31.2159 124.845 31.2159 123.896C31.2159 122.953 31.3352 122.148 31.5739 121.48C31.8153 120.81 32.1619 120.298 32.6136 119.946C33.0682 119.591 33.6136 119.413 34.25 119.413C34.8864 119.413 35.4304 119.591 35.8821 119.946C36.3366 120.298 36.6832 120.81 36.9219 121.48C37.1634 122.148 37.2841 122.953 37.2841 123.896C37.2841 124.845 37.1648 125.655 36.9261 126.325C36.6875 126.993 36.3423 127.503 35.8906 127.855C35.4389 128.205 34.892 128.379 34.25 128.379ZM34.25 127.442C34.8864 127.442 35.3807 127.135 35.733 126.521C36.0852 125.908 36.2614 125.033 36.2614 123.896C36.2614 123.141 36.1804 122.497 36.0185 121.966C35.8594 121.435 35.6293 121.03 35.3281 120.751C35.0298 120.473 34.6705 120.334 34.25 120.334C33.6193 120.334 33.1264 120.645 32.7713 121.267C32.4162 121.886 32.2386 122.763 32.2386 123.896C32.2386 124.652 32.3182 125.294 32.4773 125.823C32.6364 126.351 32.8651 126.753 33.1634 127.028C33.4645 127.304 33.8267 127.442 34.25 127.442Z" fill="#1E1E1E"/>
<path d="M43 84H49" stroke="#1E1E1E"/>
<path d="M6.39347 79.5327V88.26H5.33665V80.6407H5.28551L3.15483 82.0555V80.9816L5.33665 79.5327H6.39347ZM11.75 88.3793C11.108 88.3793 10.5611 88.2046 10.1094 87.8552C9.65767 87.5029 9.3125 86.993 9.07386 86.3253C8.83523 85.6549 8.71591 84.8452 8.71591 83.8964C8.71591 82.9532 8.83523 82.1478 9.07386 81.4802C9.31534 80.8097 9.66193 80.2984 10.1136 79.9461C10.5682 79.591 11.1136 79.4134 11.75 79.4134C12.3864 79.4134 12.9304 79.591 13.3821 79.9461C13.8366 80.2984 14.1832 80.8097 14.4219 81.4802C14.6634 82.1478 14.7841 82.9532 14.7841 83.8964C14.7841 84.8452 14.6648 85.6549 14.4261 86.3253C14.1875 86.993 13.8423 87.5029 13.3906 87.8552C12.9389 88.2046 12.392 88.3793 11.75 88.3793ZM11.75 87.4418C12.3864 87.4418 12.8807 87.135 13.233 86.5214C13.5852 85.9077 13.7614 85.0327 13.7614 83.8964C13.7614 83.1407 13.6804 82.4972 13.5185 81.966C13.3594 81.4347 13.1293 81.0299 12.8281 80.7515C12.5298 80.4731 12.1705 80.3339 11.75 80.3339C11.1193 80.3339 10.6264 80.6449 10.2713 81.2671C9.91619 81.8864 9.73864 82.7628 9.73864 83.8964C9.73864 84.652 9.81818 85.2941 9.97727 85.8225C10.1364 86.3509 10.3651 86.7529 10.6634 87.0285C10.9645 87.304 11.3267 87.4418 11.75 87.4418ZM19.25 88.3793C18.608 88.3793 18.0611 88.2046 17.6094 87.8552C17.1577 87.5029 16.8125 86.993 16.5739 86.3253C16.3352 85.6549 16.2159 84.8452 16.2159 83.8964C16.2159 82.9532 16.3352 82.1478 16.5739 81.4802C16.8153 80.8097 17.1619 80.2984 17.6136 79.9461C18.0682 79.591 18.6136 79.4134 19.25 79.4134C19.8864 79.4134 20.4304 79.591 20.8821 79.9461C21.3366 80.2984 21.6832 80.8097 21.9219 81.4802C22.1634 82.1478 22.2841 82.9532 22.2841 83.8964C22.2841 84.8452 22.1648 85.6549 21.9261 86.3253C21.6875 86.993 21.3423 87.5029 20.8906 87.8552C20.4389 88.2046 19.892 88.3793 19.25 88.3793ZM19.25 87.4418C19.8864 87.4418 20.3807 87.135 20.733 86.5214C21.0852 85.9077 21.2614 85.0327 21.2614 83.8964C21.2614 83.1407 21.1804 82.4972 21.0185 81.966C20.8594 81.4347 20.6293 81.0299 20.3281 80.7515C20.0298 80.4731 19.6705 80.3339 19.25 80.3339C18.6193 80.3339 18.1264 80.6449 17.7713 81.2671C17.4162 81.8864 17.2386 82.7628 17.2386 83.8964C17.2386 84.652 17.3182 85.2941 17.4773 85.8225C17.6364 86.3509 17.8651 86.7529 18.1634 87.0285C18.4645 87.304 18.8267 87.4418 19.25 87.4418ZM26.75 88.3793C26.108 88.3793 25.5611 88.2046 25.1094 87.8552C24.6577 87.5029 24.3125 86.993 24.0739 86.3253C23.8352 85.6549 23.7159 84.8452 23.7159 83.8964C23.7159 82.9532 23.8352 82.1478 24.0739 81.4802C24.3153 80.8097 24.6619 80.2984 25.1136 79.9461C25.5682 79.591 26.1136 79.4134 26.75 79.4134C27.3864 79.4134 27.9304 79.591 28.3821 79.9461C28.8366 80.2984 29.1832 80.8097 29.4219 81.4802C29.6634 82.1478 29.7841 82.9532 29.7841 83.8964C29.7841 84.8452 29.6648 85.6549 29.4261 86.3253C29.1875 86.993 28.8423 87.5029 28.3906 87.8552C27.9389 88.2046 27.392 88.3793 26.75 88.3793ZM26.75 87.4418C27.3864 87.4418 27.8807 87.135 28.233 86.5214C28.5852 85.9077 28.7614 85.0327 28.7614 83.8964C28.7614 83.1407 28.6804 82.4972 28.5185 81.966C28.3594 81.4347 28.1293 81.0299 27.8281 80.7515C27.5298 80.4731 27.1705 80.3339 26.75 80.3339C26.1193 80.3339 25.6264 80.6449 25.2713 81.2671C24.9162 81.8864 24.7386 82.7628 24.7386 83.8964C24.7386 84.652 24.8182 85.2941 24.9773 85.8225C25.1364 86.3509 25.3651 86.7529 25.6634 87.0285C25.9645 87.304 26.3267 87.4418 26.75 87.4418ZM34.25 88.3793C33.608 88.3793 33.0611 88.2046 32.6094 87.8552C32.1577 87.5029 31.8125 86.993 31.5739 86.3253C31.3352 85.6549 31.2159 84.8452 31.2159 83.8964C31.2159 82.9532 31.3352 82.1478 31.5739 81.4802C31.8153 80.8097 32.1619 80.2984 32.6136 79.9461C33.0682 79.591 33.6136 79.4134 34.25 79.4134C34.8864 79.4134 35.4304 79.591 35.8821 79.9461C36.3366 80.2984 36.6832 80.8097 36.9219 81.4802C37.1634 82.1478 37.2841 82.9532 37.2841 83.8964C37.2841 84.8452 37.1648 85.6549 36.9261 86.3253C36.6875 86.993 36.3423 87.5029 35.8906 87.8552C35.4389 88.2046 34.892 88.3793 34.25 88.3793ZM34.25 87.4418C34.8864 87.4418 35.3807 87.135 35.733 86.5214C36.0852 85.9077 36.2614 85.0327 36.2614 83.8964C36.2614 83.1407 36.1804 82.4972 36.0185 81.966C35.8594 81.4347 35.6293 81.0299 35.3281 80.7515C35.0298 80.4731 34.6705 80.3339 34.25 80.3339C33.6193 80.3339 33.1264 80.6449 32.7713 81.2671C32.4162 81.8864 32.2386 82.7628 32.2386 83.8964C32.2386 84.652 32.3182 85.2941 32.4773 85.8225C32.6364 86.3509 32.8651 86.7529 33.1634 87.0285C33.4645 87.304 33.8267 87.4418 34.25 87.4418Z" fill="#1E1E1E"/>
<path d="M43 44H49" stroke="#1E1E1E"/>
<path d="M6.59268 39.5327V48.26H5.53587V40.6407H5.48473L3.35405 42.0555V40.9816L5.53587 39.5327H6.59268ZM11.8299 48.3793C11.3299 48.3793 10.8796 48.2799 10.479 48.081C10.0785 47.8822 9.75746 47.6094 9.51598 47.2628C9.2745 46.9162 9.1424 46.5214 9.11967 46.0782H10.1424C10.1822 46.4731 10.3612 46.7998 10.6793 47.0583C11.0004 47.314 11.3839 47.4418 11.8299 47.4418C12.1879 47.4418 12.506 47.358 12.7844 47.1904C13.0657 47.0228 13.2859 46.7927 13.445 46.5001C13.6069 46.2046 13.6879 45.8708 13.6879 45.4986C13.6879 45.118 13.604 44.7785 13.4364 44.4802C13.2717 44.179 13.0444 43.9418 12.7546 43.7685C12.4648 43.5952 12.1339 43.5072 11.7617 43.5043C11.4947 43.5015 11.2205 43.5427 10.9393 43.6279C10.658 43.7103 10.4265 43.8168 10.2447 43.9475L9.25604 43.8282L9.78445 39.5327H14.3185V40.4702H10.6708L10.364 43.0441H10.4151C10.5941 42.902 10.8185 42.7841 11.0884 42.6904C11.3583 42.5966 11.6396 42.5498 11.9322 42.5498C12.4663 42.5498 12.9421 42.6776 13.3597 42.9333C13.7802 43.1861 14.1097 43.5327 14.3484 43.9731C14.5898 44.4134 14.7106 44.9162 14.7106 45.4816C14.7106 46.0384 14.5856 46.5356 14.3356 46.9731C14.0884 47.4077 13.7475 47.7515 13.3129 48.0043C12.8782 48.2543 12.3839 48.3793 11.8299 48.3793ZM19.25 48.3793C18.608 48.3793 18.0611 48.2046 17.6094 47.8552C17.1577 47.5029 16.8125 46.993 16.5739 46.3253C16.3352 45.6549 16.2159 44.8452 16.2159 43.8964C16.2159 42.9532 16.3352 42.1478 16.5739 41.4802C16.8153 40.8097 17.1619 40.2984 17.6136 39.9461C18.0682 39.591 18.6136 39.4134 19.25 39.4134C19.8864 39.4134 20.4304 39.591 20.8821 39.9461C21.3366 40.2984 21.6832 40.8097 21.9219 41.4802C22.1634 42.1478 22.2841 42.9532 22.2841 43.8964C22.2841 44.8452 22.1648 45.6549 21.9261 46.3253C21.6875 46.993 21.3423 47.5029 20.8906 47.8552C20.4389 48.2046 19.892 48.3793 19.25 48.3793ZM19.25 47.4418C19.8864 47.4418 20.3807 47.135 20.733 46.5214C21.0852 45.9077 21.2614 45.0327 21.2614 43.8964C21.2614 43.1407 21.1804 42.4972 21.0185 41.966C20.8594 41.4347 20.6293 41.0299 20.3281 40.7515C20.0298 40.4731 19.6705 40.3339 19.25 40.3339C18.6193 40.3339 18.1264 40.6449 17.7713 41.2671C17.4162 41.8864 17.2386 42.7628 17.2386 43.8964C17.2386 44.652 17.3182 45.2941 17.4773 45.8225C17.6364 46.3509 17.8651 46.7529 18.1634 47.0285C18.4645 47.304 18.8267 47.4418 19.25 47.4418ZM26.75 48.3793C26.108 48.3793 25.5611 48.2046 25.1094 47.8552C24.6577 47.5029 24.3125 46.993 24.0739 46.3253C23.8352 45.6549 23.7159 44.8452 23.7159 43.8964C23.7159 42.9532 23.8352 42.1478 24.0739 41.4802C24.3153 40.8097 24.6619 40.2984 25.1136 39.9461C25.5682 39.591 26.1136 39.4134 26.75 39.4134C27.3864 39.4134 27.9304 39.591 28.3821 39.9461C28.8366 40.2984 29.1832 40.8097 29.4219 41.4802C29.6634 42.1478 29.7841 42.9532 29.7841 43.8964C29.7841 44.8452 29.6648 45.6549 29.4261 46.3253C29.1875 46.993 28.8423 47.5029 28.3906 47.8552C27.9389 48.2046 27.392 48.3793 26.75 48.3793ZM26.75 47.4418C27.3864 47.4418 27.8807 47.135 28.233 46.5214C28.5852 45.9077 28.7614 45.0327 28.7614 43.8964C28.7614 43.1407 28.6804 42.4972 28.5185 41.966C28.3594 41.4347 28.1293 41.0299 27.8281 40.7515C27.5298 40.4731 27.1705 40.3339 26.75 40.3339C26.1193 40.3339 25.6264 40.6449 25.2713 41.2671C24.9162 41.8864 24.7386 42.7628 24.7386 43.8964C24.7386 44.652 24.8182 45.2941 24.9773 45.8225C25.1364 46.3509 25.3651 46.7529 25.6634 47.0285C25.9645 47.304 26.3267 47.4418 26.75 47.4418ZM34.25 48.3793C33.608 48.3793 33.0611 48.2046 32.6094 47.8552C32.1577 47.5029 31.8125 46.993 31.5739 46.3253C31.3352 45.6549 31.2159 44.8452 31.2159 43.8964C31.2159 42.9532 31.3352 42.1478 31.5739 41.4802C31.8153 40.8097 32.1619 40.2984 32.6136 39.9461C33.0682 39.591 33.6136 39.4134 34.25 39.4134C34.8864 39.4134 35.4304 39.591 35.8821 39.9461C36.3366 40.2984 36.6832 40.8097 36.9219 41.4802C37.1634 42.1478 37.2841 42.9532 37.2841 43.8964C37.2841 44.8452 37.1648 45.6549 36.9261 46.3253C36.6875 46.993 36.3423 47.5029 35.8906 47.8552C35.4389 48.2046 34.892 48.3793 34.25 48.3793ZM34.25 47.4418C34.8864 47.4418 35.3807 47.135 35.733 46.5214C36.0852 45.9077 36.2614 45.0327 36.2614 43.8964C36.2614 43.1407 36.1804 42.4972 36.0185 41.966C35.8594 41.4347 35.6293 41.0299 35.3281 40.7515C35.0298 40.4731 34.6705 40.3339 34.25 40.3339C33.6193 40.3339 33.1264 40.6449 32.7713 41.2671C32.4162 41.8864 32.2386 42.7628 32.2386 43.8964C32.2386 44.652 32.3182 45.2941 32.4773 45.8225C32.6364 46.3509 32.8651 46.7529 33.1634 47.0285C33.4645 47.304 33.8267 47.4418 34.25 47.4418Z" fill="#1E1E1E"/>
<path d="M43 4H49" stroke="#1E1E1E"/>
<path d="M1.63778 12.46V11.693L4.51847 8.53955C4.85653 8.17023 5.13494 7.8492 5.35369 7.57648C5.57244 7.30091 5.73438 7.04239 5.83949 6.80091C5.94744 6.55659 6.00142 6.30091 6.00142 6.03386C6.00142 5.72705 5.92756 5.46142 5.77983 5.23699C5.63494 5.01256 5.43608 4.83926 5.18324 4.7171C4.9304 4.59494 4.64631 4.53386 4.33097 4.53386C3.99574 4.53386 3.70312 4.60347 3.45312 4.74267C3.20597 4.87903 3.0142 5.07079 2.87784 5.31795C2.74432 5.56511 2.67756 5.85489 2.67756 6.18727H1.67188C1.67188 5.67591 1.78977 5.22705 2.02557 4.84068C2.26136 4.45432 2.58239 4.15318 2.98864 3.93727C3.39773 3.72136 3.85653 3.61341 4.36506 3.61341C4.87642 3.61341 5.32955 3.72136 5.72443 3.93727C6.11932 4.15318 6.42898 4.44437 6.65341 4.81085C6.87784 5.17733 6.99006 5.585 6.99006 6.03386C6.99006 6.35489 6.93182 6.66881 6.81534 6.97562C6.7017 7.2796 6.50284 7.61909 6.21875 7.99409C5.9375 8.36625 5.54688 8.8208 5.04688 9.35773L3.08665 11.4543V11.5225H7.14347V12.46H1.63778ZM11.75 12.5793C11.108 12.5793 10.5611 12.4046 10.1094 12.0552C9.65767 11.7029 9.3125 11.193 9.07386 10.5253C8.83523 9.85489 8.71591 9.04523 8.71591 8.09636C8.71591 7.15318 8.83523 6.34778 9.07386 5.68017C9.31534 5.00972 9.66193 4.49835 10.1136 4.14608C10.5682 3.79097 11.1136 3.61341 11.75 3.61341C12.3864 3.61341 12.9304 3.79097 13.3821 4.14608C13.8366 4.49835 14.1832 5.00972 14.4219 5.68017C14.6634 6.34778 14.7841 7.15318 14.7841 8.09636C14.7841 9.04523 14.6648 9.85489 14.4261 10.5253C14.1875 11.193 13.8423 11.7029 13.3906 12.0552C12.9389 12.4046 12.392 12.5793 11.75 12.5793ZM11.75 11.6418C12.3864 11.6418 12.8807 11.335 13.233 10.7214C13.5852 10.1077 13.7614 9.23273 13.7614 8.09636C13.7614 7.34068 13.6804 6.69722 13.5185 6.16597C13.3594 5.63472 13.1293 5.22989 12.8281 4.95148C12.5298 4.67307 12.1705 4.53386 11.75 4.53386C11.1193 4.53386 10.6264 4.84494 10.2713 5.4671C9.91619 6.08642 9.73864 6.96284 9.73864 8.09636C9.73864 8.85205 9.81818 9.49409 9.97727 10.0225C10.1364 10.5509 10.3651 10.9529 10.6634 11.2285C10.9645 11.504 11.3267 11.6418 11.75 11.6418ZM19.25 12.5793C18.608 12.5793 18.0611 12.4046 17.6094 12.0552C17.1577 11.7029 16.8125 11.193 16.5739 10.5253C16.3352 9.85489 16.2159 9.04523 16.2159 8.09636C16.2159 7.15318 16.3352 6.34778 16.5739 5.68017C16.8153 5.00972 17.1619 4.49835 17.6136 4.14608C18.0682 3.79097 18.6136 3.61341 19.25 3.61341C19.8864 3.61341 20.4304 3.79097 20.8821 4.14608C21.3366 4.49835 21.6832 5.00972 21.9219 5.68017C22.1634 6.34778 22.2841 7.15318 22.2841 8.09636C22.2841 9.04523 22.1648 9.85489 21.9261 10.5253C21.6875 11.193 21.3423 11.7029 20.8906 12.0552C20.4389 12.4046 19.892 12.5793 19.25 12.5793ZM19.25 11.6418C19.8864 11.6418 20.3807 11.335 20.733 10.7214C21.0852 10.1077 21.2614 9.23273 21.2614 8.09636C21.2614 7.34068 21.1804 6.69722 21.0185 6.16597C20.8594 5.63472 20.6293 5.22989 20.3281 4.95148C20.0298 4.67307 19.6705 4.53386 19.25 4.53386C18.6193 4.53386 18.1264 4.84494 17.7713 5.4671C17.4162 6.08642 17.2386 6.96284 17.2386 8.09636C17.2386 8.85205 17.3182 9.49409 17.4773 10.0225C17.6364 10.5509 17.8651 10.9529 18.1634 11.2285C18.4645 11.504 18.8267 11.6418 19.25 11.6418ZM26.75 12.5793C26.108 12.5793 25.5611 12.4046 25.1094 12.0552C24.6577 11.7029 24.3125 11.193 24.0739 10.5253C23.8352 9.85489 23.7159 9.04523 23.7159 8.09636C23.7159 7.15318 23.8352 6.34778 24.0739 5.68017C24.3153 5.00972 24.6619 4.49835 25.1136 4.14608C25.5682 3.79097 26.1136 3.61341 26.75 3.61341C27.3864 3.61341 27.9304 3.79097 28.3821 4.14608C28.8366 4.49835 29.1832 5.00972 29.4219 5.68017C29.6634 6.34778 29.7841 7.15318 29.7841 8.09636C29.7841 9.04523 29.6648 9.85489 29.4261 10.5253C29.1875 11.193 28.8423 11.7029 28.3906 12.0552C27.9389 12.4046 27.392 12.5793 26.75 12.5793ZM26.75 11.6418C27.3864 11.6418 27.8807 11.335 28.233 10.7214C28.5852 10.1077 28.7614 9.23273 28.7614 8.09636C28.7614 7.34068 28.6804 6.69722 28.5185 6.16597C28.3594 5.63472 28.1293 5.22989 27.8281 4.95148C27.5298 4.67307 27.1705 4.53386 26.75 4.53386C26.1193 4.53386 25.6264 4.84494 25.2713 5.4671C24.9162 6.08642 24.7386 6.96284 24.7386 8.09636C24.7386 8.85205 24.8182 9.49409 24.9773 10.0225C25.1364 10.5509 25.3651 10.9529 25.6634 11.2285C25.9645 11.504 26.3267 11.6418 26.75 11.6418ZM34.25 12.5793C33.608 12.5793 33.0611 12.4046 32.6094 12.0552C32.1577 11.7029 31.8125 11.193 31.5739 10.5253C31.3352 9.85489 31.2159 9.04523 31.2159 8.09636C31.2159 7.15318 31.3352 6.34778 31.5739 5.68017C31.8153 5.00972 32.1619 4.49835 32.6136 4.14608C33.0682 3.79097 33.6136 3.61341 34.25 3.61341C34.8864 3.61341 35.4304 3.79097 35.8821 4.14608C36.3366 4.49835 36.6832 5.00972 36.9219 5.68017C37.1634 6.34778 37.2841 7.15318 37.2841 8.09636C37.2841 9.04523 37.1648 9.85489 36.9261 10.5253C36.6875 11.193 36.3423 11.7029 35.8906 12.0552C35.4389 12.4046 34.892 12.5793 34.25 12.5793ZM34.25 11.6418C34.8864 11.6418 35.3807 11.335 35.733 10.7214C36.0852 10.1077 36.2614 9.23273 36.2614 8.09636C36.2614 7.34068 36.1804 6.69722 36.0185 6.16597C35.8594 5.63472 35.6293 5.22989 35.3281 4.95148C35.0298 4.67307 34.6705 4.53386 34.25 4.53386C33.6193 4.53386 33.1264 4.84494 32.7713 5.4671C32.4162 6.08642 32.2386 6.96284 32.2386 8.09636C32.2386 8.85205 32.3182 9.49409 32.4773 10.0225C32.6364 10.5509 32.8651 10.9529 33.1634 11.2285C33.4645 11.504 33.8267 11.6418 34.25 11.6418Z" fill="#1E1E1E"/>
<path d="M49 164H647" stroke="#CCCCCC"/>
<path d="M49 124H647" stroke="#CCCCCC"/>
<path d="M49 84H647" stroke="#CCCCCC"/>
<path d="M49 44H647" stroke="#CCCCCC"/>
<path d="M49 4H647" stroke="#CCCCCC"/>
<path d="M49 4V164" stroke="#CCCCCC"/>
<path d="M248.333 4V164" stroke="#CCCCCC"/>
<path d="M447.667 4V164" stroke="#CCCCCC"/>
<path d="M647 4V164" stroke="#CCCCCC"/>
<path d="M48.5 97.5L248.5 105.5L447.5 101.5L647 81.5" stroke="#1F7CFD"/>
<path d="M49 100C50.6569 100 52 98.6569 52 97C52 95.3431 50.6569 94 49 94C47.3431 94 46 95.3431 46 97C46 98.6569 47.3431 100 49 100Z" fill="white" stroke="#1F7CFD"/>
<path d="M248 109C249.657 109 251 107.657 251 106C251 104.343 249.657 103 248 103C246.343 103 245 104.343 245 106C245 107.657 246.343 109 248 109Z" fill="white" stroke="#1F7CFD"/>
<path d="M448 105C449.657 105 451 103.657 451 102C451 100.343 449.657 99 448 99C446.343 99 445 100.343 445 102C445 103.657 446.343 105 448 105Z" fill="white" stroke="#1F7CFD"/>
<path d="M647 85C648.657 85 650 83.6569 650 82C650 80.3431 648.657 79 647 79C645.343 79 644 80.3431 644 82C644 83.6569 645.343 85 647 85Z" fill="white" stroke="#1F7CFD"/>
<path d="M48.5 154.5L248.5 157.5L447 154.5L647.5 151" stroke="#FF7243"/>
<path d="M49 157C50.6569 157 52 155.657 52 154C52 152.343 50.6569 151 49 151C47.3431 151 46 152.343 46 154C46 155.657 47.3431 157 49 157Z" fill="white" stroke="#FF7243"/>
<path d="M248 161C249.657 161 251 159.657 251 158C251 156.343 249.657 155 248 155C246.343 155 245 156.343 245 158C245 159.657 246.343 161 248 161Z" fill="white" stroke="#FF7243"/>
<path d="M448 157C449.657 157 451 155.657 451 154C451 152.343 449.657 151 448 151C446.343 151 445 152.343 445 154C445 155.657 446.343 157 448 157Z" fill="white" stroke="#FF7243"/>
<path d="M647 154C648.657 154 650 152.657 650 151C650 149.343 648.657 148 647 148C645.343 148 644 149.343 644 151C644 152.657 645.343 154 647 154Z" fill="white" stroke="#FF7243"/>
<path d="M48.5 16.5L248.5 8.5L447.5 25L647 4.5" stroke="#545252"/>
<path d="M49 20C50.6569 20 52 18.6569 52 17C52 15.3431 50.6569 14 49 14C47.3431 14 46 15.3431 46 17C46 18.6569 47.3431 20 49 20Z" fill="white" stroke="#545252"/>
<path d="M248 12C249.657 12 251 10.6569 251 9C251 7.34315 249.657 6 248 6C246.343 6 245 7.34315 245 9C245 10.6569 246.343 12 248 12Z" fill="white" stroke="#545252"/>
<path d="M448 29C449.657 29 451 27.6569 451 26C451 24.3431 449.657 23 448 23C446.343 23 445 24.3431 445 26C445 27.6569 446.343 29 448 29Z" fill="white" stroke="#545252"/>
<path d="M647 7C648.657 7 650 5.65685 650 4C650 2.34315 648.657 1 647 1C645.343 1 644 2.34315 644 4C644 5.65685 645.343 7 647 7Z" fill="white" stroke="#545252"/>
</svg>
